<?xml version="1.0" encoding="UTF-8" standalone="no"?>
<svg
   xmlns:dc="http://purl.org/dc/elements/1.1/"
   xmlns:cc="http://creativecommons.org/ns#"
   xmlns:rdf="http://www.w3.org/1999/02/22-rdf-syntax-ns#"
   xmlns:svg="http://www.w3.org/2000/svg"
   xmlns="http://www.w3.org/2000/svg"
   xmlns:sodipodi="http://sodipodi.sourceforge.net/DTD/sodipodi-0.dtd"
   xmlns:inkscape="http://www.inkscape.org/namespaces/inkscape"
   height="25.75"
   width="25.75"
   version="1.1"
   id="svg8"
   sodipodi:docname="walkable.svg"
   inkscape:version="1.0.2-2 (e86c870879, 2021-01-15)">
  <metadata
     id="metadata14">
    <rdf:RDF>
      <cc:Work
         rdf:about="">
        <dc:format>image/svg+xml</dc:format>
        <dc:type
           rdf:resource="http://purl.org/dc/dcmitype/StillImage" />
        <dc:title></dc:title>
      </cc:Work>
    </rdf:RDF>
  </metadata>
  <defs
     id="defs12" />
  <sodipodi:namedview
     pagecolor="#ffffff"
     bordercolor="#666666"
     borderopacity="1"
     objecttolerance="10"
     gridtolerance="10"
     guidetolerance="10"
     inkscape:pageopacity="0"
     inkscape:pageshadow="2"
     inkscape:window-width="1920"
     inkscape:window-height="1017"
     id="namedview10"
     showgrid="false"
     inkscape:zoom="10.116505"
     inkscape:cx="8.7402272"
     inkscape:cy="28.642363"
     inkscape:window-x="1272"
     inkscape:window-y="-8"
     inkscape:window-maximized="1"
     inkscape:current-layer="g6" />
  <g
     transform="translate(12.85,5.1)"
     id="g6">
    <path
       d="M 9.1000002,-1.4715353 Q 12.85,2.2778775 12.9,7.6520358 12.85,13.026194 9.1000002,16.775607 5.3500002,20.52502 2.1e-7,20.650001 -5.3499998,20.52502 -9.0999998,16.775607 -12.85,13.026194 -12.85,7.6520358 q 0,-5.3741583 3.7500002,-9.1235711 3.75,-3.7494131 9.10000001,-3.6244331 5.34999999,-0.12498 9.09999999,3.6244331 m -2.1,2.1246673 q -2.9,-2.8745499 -6.99999999,-2.8745499 -4.10000001,0 -7.00000001,2.8745499 -2.9,2.8745498 -2.9,6.9989038 0,4.1243542 2.9,6.9989042 2.9,2.87455 7.00000001,2.99953 Q 4.1000002,17.52549 7.0000002,14.65094 9.9,11.77639 9.9,7.6520358 9.9,3.5276818 7.0000002,0.653132"
       fill="#e0f0f5"
       fill-rule="evenodd"
       stroke="none"
       id="path2"
       style="stroke-width:1.58101" />
    <path
       d="M 7.0000002,0.653132 Q 9.9,3.5276818 9.9,7.6520358 9.9,11.77639 7.0000002,14.65094 q -2.9,2.87455 -6.99999999,2.99953 -4.10000001,-0.12498 -7.00000001,-2.99953 -2.9,-2.87455 -2.9,-6.9989042 0,-4.124354 2.9,-6.9989038 2.9,-2.8745499 7.00000001,-2.8745499 4.09999999,0 6.99999999,2.8745499"
       fill="#000000"
       fill-opacity="0.701961"
       fill-rule="evenodd"
       stroke="none"
       id="path4"
       style="stroke-width:1.58101" />
  </g>
</svg>
