<?xml version="1.0" encoding="UTF-8" standalone="no"?>
<svg
   height="1"
   width="1"
   version="1.1"
   id="svg8"
   sodipodi:docname="walkable.svg"
   inkscape:version="1.3.2 (091e20ef0f, 2023-11-25, custom)"
   xmlns:inkscape="http://www.inkscape.org/namespaces/inkscape"
   xmlns:sodipodi="http://sodipodi.sourceforge.net/DTD/sodipodi-0.dtd"
   xmlns="http://www.w3.org/2000/svg"
   xmlns:svg="http://www.w3.org/2000/svg"
   xmlns:rdf="http://www.w3.org/1999/02/22-rdf-syntax-ns#"
   xmlns:cc="http://creativecommons.org/ns#"
   xmlns:dc="http://purl.org/dc/elements/1.1/">
  <metadata
     id="metadata14">
    <rdf:RDF>
      <cc:Work
         rdf:about="">
        <dc:format>image/svg+xml</dc:format>
        <dc:type
           rdf:resource="http://purl.org/dc/dcmitype/StillImage" />
      </cc:Work>
    </rdf:RDF>
  </metadata>
  <defs
     id="defs12" />
  <sodipodi:namedview
     pagecolor="#ffffff"
     bordercolor="#666666"
     borderopacity="1"
     objecttolerance="10"
     gridtolerance="10"
     guidetolerance="10"
     inkscape:pageopacity="0"
     inkscape:pageshadow="2"
     inkscape:window-width="1920"
     inkscape:window-height="1024"
     id="namedview10"
     showgrid="false"
     inkscape:zoom="228.91038"
     inkscape:cx="0.94141648"
     inkscape:cy="0.18347792"
     inkscape:window-x="0"
     inkscape:window-y="0"
     inkscape:window-maximized="1"
     inkscape:current-layer="g6"
     inkscape:showpageshadow="0"
     inkscape:pagecheckerboard="0"
     inkscape:deskcolor="#505050" />
  <g
     transform="translate(12.85,5.1)"
     id="g6">
    <path
       d="m -12.497573,-5.4590858 q 0.145631,0.1456076 0.147573,0.3543121 -0.0019,0.2087045 -0.147573,0.3543131 Q -12.643204,-4.604853 -12.850971,-4.6 -13.058738,-4.6049 -13.204369,-4.7504606 -13.35,-4.8960692 -13.35,-5.1047737 q 0,-0.2087045 0.145631,-0.3543121 0.145631,-0.1456087 0.353398,-0.1407547 0.207767,-0.0049 0.353398,0.1407547 m -0.08155,0.08251 q -0.112622,-0.1116327 -0.271845,-0.1116327 -0.159223,0 -0.271845,0.1116327 -0.112621,0.1116328 -0.112621,0.2718014 0,0.1601686 0.112621,0.2718013 0.112622,0.1116327 0.271845,0.1164867 0.159223,-0.0049 0.271845,-0.1164867 0.112621,-0.1116327 0.112621,-0.2718013 0,-0.1601686 -0.112621,-0.2718014"
       fill="#e0f0f5"
       fill-rule="evenodd"
       stroke="none"
       id="path2"
       style="stroke-width:0.0613983" />
    <path
       d="m -12.579126,-5.3765751 q 0.112621,0.1116328 0.112621,0.2718014 0,0.1601686 -0.112621,0.2718013 -0.112622,0.1116327 -0.271845,0.1164867 -0.159223,-0.0049 -0.271845,-0.1164867 -0.112621,-0.1116327 -0.112621,-0.2718013 0,-0.1601686 0.112621,-0.2718014 0.112622,-0.1116327 0.271845,-0.1116327 0.159223,0 0.271845,0.1116327"
       fill="#000000"
       fill-opacity="0.701961"
       fill-rule="evenodd"
       stroke="none"
       id="path4"
       style="stroke-width:0.0613983" />
  </g>
</svg>
